<svg width="240" height="241" viewBox="0 0 240 241" fill="none" xmlns="http://www.w3.org/2000/svg">
<path d="M161.115 191.3C159.315 195.7 147.235 195.14 145.835 198.9C144.435 202.66 156.755 202.3 156.355 207.02C155.955 211.74 148.515 212.46 135.155 213.22C121.795 213.98 118.835 217.5 105.475 221.86C92.1155 226.22 86.2355 220.58 78.7555 216.5C71.3155 212.46 57.0355 219.9 52.5555 213.62C48.0755 207.3 60.2755 205.06 71.0355 202.62C81.8355 200.14 76.9555 198.98 76.6755 193.74C76.6355 192.66 76.9555 191.82 77.5555 191.14C79.9955 188.5 87.0755 188.46 95.5555 188.62C106.235 188.86 108.915 185.3 123.795 185.62C137.515 185.9 159.035 186.74 160.995 190.3C161.235 190.62 161.275 190.94 161.115 191.3Z" fill="black" fill-opacity="0.25"/>
<path d="M128.757 206.3C110.597 211.3 83.3573 202.98 83.5973 198.22C83.6373 197.62 83.8773 197.1 84.3173 196.62C87.4373 193.18 100.157 192.22 111.717 192.9C125.277 193.74 134.437 195.9 138.437 198.22C142.077 200.26 138.037 203.74 128.757 206.3Z" fill="#23272E"/>
<path d="M140.958 67.0604C140.958 67.0604 139.918 63.8204 143.518 63.6204C147.118 63.4604 143.518 58.1404 147.118 55.0604C150.718 51.9804 154.998 53.3404 155.158 57.4604C155.318 61.5804 154.638 64.1404 155.158 65.1804C155.678 66.2204 157.198 63.3004 159.078 65.3404C160.958 67.3804 149.318 106.78 149.318 106.78L142.998 105.22L140.958 67.0604Z" fill="white" fill-opacity="0.07"/>
<path d="M152.4 73.3402C150.68 74.1402 147.16 97.6602 150.08 95.3402C150.76 94.8202 156.8 71.3002 152.4 73.3402Z" fill="white" fill-opacity="0.07"/>
<path d="M182.203 48.4998C182.043 49.6198 181.763 50.6598 181.483 51.5798C178.683 60.0598 171.043 60.3798 170.923 61.5398C170.803 62.8198 176.443 67.0598 171.163 72.2198C165.883 77.3798 155.123 70.8198 152.283 70.5798C148.283 70.2598 139.963 77.3798 134.243 69.9798C130.563 65.2198 136.483 62.5398 135.123 61.2198C133.763 59.8998 123.123 59.6598 123.123 47.6998C123.123 47.4598 123.123 47.2198 123.123 46.9798C123.523 35.0198 134.163 35.8598 134.683 33.4998C135.203 31.1398 135.083 17.2998 151.883 16.6998C168.723 16.0998 168.203 33.1398 169.723 33.9398C171.323 34.7798 184.003 36.9798 182.203 48.4998Z" fill="white" fill-opacity="0.07"/>
<path d="M168.842 58.4597C172.442 56.9797 177.842 54.3397 181.442 51.5797C178.642 60.0597 171.002 60.3797 170.882 61.5397C170.762 62.8197 176.402 67.0597 171.122 72.2197C165.842 77.3797 155.082 70.8197 152.242 70.5797C148.242 70.2597 139.922 77.3797 134.202 69.9797C130.522 65.2197 136.442 62.5397 135.082 61.2197C133.722 59.8997 123.082 59.6597 123.082 47.6997C124.002 49.5797 125.922 52.2597 130.042 54.1397C136.962 57.2997 141.842 53.7797 144.282 57.1797C146.722 60.5797 141.602 62.6997 143.882 64.6997C146.202 66.6997 149.802 61.6597 155.562 64.3397C161.362 67.0197 164.962 68.7797 167.242 66.3397C169.642 63.8597 163.722 60.5797 168.842 58.4597Z" fill="white" fill-opacity="0.07"/>
<path d="M141.522 41.4593C141.522 41.4593 141.482 41.4193 141.362 41.3393C141.242 41.2593 141.122 41.1393 140.922 40.9393C140.562 40.5793 140.082 40.0193 139.682 39.2593C139.482 38.8993 139.282 38.4593 139.122 37.9793C138.962 37.4993 138.882 36.9793 138.802 36.4193C138.762 35.8593 138.762 35.2993 138.842 34.7393C138.882 34.4593 138.922 34.1793 139.002 33.8993C139.042 33.7393 139.042 33.6593 139.122 33.4193L139.242 33.0193C139.362 32.5393 139.682 31.9393 140.002 31.4193C140.322 30.9393 140.762 30.4593 141.202 30.0993C141.682 29.7393 142.162 29.4593 142.642 29.2593C143.122 29.0593 143.642 28.9393 144.082 28.8593C144.522 28.7793 144.962 28.7793 145.322 28.7793C145.682 28.7793 146.002 28.7793 146.282 28.8193C146.562 28.8593 146.762 28.8593 146.882 28.8993C147.042 28.9393 147.122 28.9393 147.122 28.9393C147.642 29.0593 147.962 29.5393 147.842 30.0593C147.722 30.5793 147.242 30.8993 146.722 30.7793H146.682H146.602C146.602 30.7793 146.562 30.7793 146.482 30.7393C146.362 30.6993 146.242 30.6593 146.002 30.6593C145.802 30.6193 145.562 30.5793 145.242 30.5793C144.962 30.5793 144.642 30.5393 144.282 30.5793C143.922 30.6193 143.562 30.6593 143.202 30.8193C142.842 30.9393 142.442 31.0993 142.122 31.3393C141.762 31.5793 141.442 31.8993 141.162 32.2593C140.882 32.6193 140.682 32.9393 140.482 33.4993L140.322 33.8593L140.242 34.1793C140.162 34.4193 140.082 34.6593 140.082 34.8993C140.002 35.3793 139.962 35.8593 139.962 36.2993C139.962 36.7393 140.042 37.2193 140.122 37.6193C140.202 38.0193 140.362 38.4193 140.522 38.7393C140.842 39.4193 141.242 39.9393 141.522 40.2593C141.682 40.4193 141.802 40.5393 141.882 40.6193C141.962 40.6993 142.002 40.7393 142.002 40.7393H142.042C142.202 40.8993 142.242 41.1793 142.082 41.3393C141.962 41.5393 141.722 41.5793 141.522 41.4593Z" fill="white" fill-opacity="0.07"/>
<path d="M146.361 29.6991C146.361 29.6991 146.361 29.6191 146.401 29.4191C146.441 29.2591 146.521 29.0191 146.601 28.6991C146.801 28.0991 147.121 27.2591 147.801 26.3391C148.121 25.8991 148.561 25.4191 149.081 25.0591C149.601 24.6591 150.201 24.3391 150.841 24.0591C151.161 23.9391 151.521 23.8591 151.881 23.7391C152.241 23.6591 152.601 23.6191 152.961 23.5791C153.321 23.5391 153.681 23.5391 154.041 23.5391H154.321H154.361H154.481H154.521H154.641L155.121 23.5791C155.281 23.6191 155.401 23.6191 155.601 23.6591L156.201 23.8191C156.401 23.8991 156.601 23.9391 156.801 24.0191L157.321 24.2591C157.681 24.4191 158.001 24.6191 158.281 24.8591C158.601 25.0591 158.841 25.3391 159.121 25.5791C160.121 26.6191 160.681 27.8591 161.001 28.8591C161.321 29.8991 161.481 30.7791 161.561 31.3791C161.601 31.6991 161.601 31.9391 161.641 32.0991C161.641 32.2991 161.641 32.3791 161.641 32.3791C161.681 33.0991 161.121 33.6991 160.401 33.6991C159.681 33.7391 159.081 33.1791 159.081 32.4591V32.4191V32.3391C159.081 32.3391 159.081 32.2991 159.081 32.1791C159.081 32.0591 159.081 31.8591 159.041 31.6191C159.001 31.1391 158.921 30.3791 158.681 29.5791C158.441 28.7791 158.041 27.8591 157.401 27.1391C157.241 26.9791 157.081 26.7791 156.881 26.6191C156.681 26.4591 156.481 26.2991 156.281 26.2191L155.961 26.0191C155.841 25.9791 155.761 25.9391 155.641 25.8991L155.321 25.7791C155.201 25.7391 155.001 25.7391 154.881 25.6991L154.401 25.6191H154.281H154.241C154.161 25.6191 154.361 25.6191 154.321 25.6191H154.281H154.081C153.801 25.6191 153.521 25.5791 153.241 25.6191C152.961 25.6591 152.681 25.6591 152.441 25.6991C152.201 25.7791 151.921 25.8191 151.681 25.8991C151.201 26.0591 150.761 26.2591 150.401 26.5391C150.041 26.7791 149.721 27.0991 149.481 27.4191C148.961 28.0591 148.681 28.6991 148.521 29.1791C148.441 29.4191 148.401 29.5791 148.361 29.6991C148.321 29.8191 148.321 29.8591 148.321 29.8591V29.9391C148.201 30.4591 147.721 30.7391 147.201 30.6591C146.561 30.6591 146.281 30.1791 146.361 29.6991Z" fill="white" fill-opacity="0.07"/>
<path d="M166.24 35.5796C166.24 35.5796 166.52 35.5796 166.96 35.6196C167.4 35.6596 168 35.7396 168.72 35.9396C169.44 36.1396 170.28 36.4596 171.08 37.0996C171.48 37.4196 171.84 37.7796 172.16 38.2196C172.32 38.4596 172.44 38.6596 172.56 38.9396L172.72 39.2996L172.8 39.6996C172.92 40.0996 173.04 40.6996 173.04 41.1796C173.08 41.6996 173.04 42.1796 172.92 42.6196C172.72 43.5396 172.36 44.3396 171.96 44.9396C171.56 45.5396 171.12 45.9796 170.84 46.2596C170.52 46.5396 170.32 46.6996 170.32 46.6996C170.12 46.8596 169.8 46.8196 169.64 46.6196C169.48 46.4196 169.52 46.0996 169.72 45.9396C169.68 45.9796 170.4 45.4196 171 44.3396C171.32 43.8196 171.56 43.1396 171.64 42.3796C171.68 42.0196 171.68 41.6196 171.64 41.2596C171.6 40.8596 171.52 40.5796 171.36 40.0996L171.28 39.8196L171.16 39.5796C171.08 39.4196 170.96 39.2596 170.88 39.1396C170.68 38.8596 170.4 38.6596 170.12 38.4596C169.52 38.0996 168.88 37.8596 168.28 37.7396C167.68 37.6196 167.2 37.5796 166.84 37.5796C166.48 37.5796 166.32 37.5796 166.32 37.5796C165.76 37.5796 165.28 37.1396 165.28 36.5796C165.24 36.0596 165.68 35.5796 166.24 35.5796Z" fill="white" fill-opacity="0.07"/>
<path d="M139.682 40.4592C139.682 40.4592 139.642 40.4592 139.602 40.4592C139.522 40.4592 139.442 40.4992 139.322 40.5392C139.042 40.6192 138.682 40.7392 138.282 41.0192C138.082 41.1392 137.882 41.2992 137.722 41.4992C137.522 41.6992 137.362 41.9392 137.242 42.2192C137.122 42.4992 137.002 42.7792 136.922 43.1392C136.842 43.4592 136.802 43.8592 136.802 44.1792C136.802 44.6192 136.842 44.8992 136.922 45.2192C137.002 45.5392 137.122 45.8592 137.322 46.1392C137.682 46.6992 138.162 47.0992 138.642 47.3792C139.122 47.6592 139.562 47.8192 139.882 47.8992C140.202 47.9792 140.402 48.0192 140.362 48.0192C140.562 48.0192 140.722 48.2192 140.682 48.4192C140.682 48.6192 140.482 48.7792 140.282 48.7392C140.282 48.7392 140.042 48.7392 139.682 48.6592C139.322 48.5792 138.802 48.4592 138.162 48.2192C137.562 47.9392 136.882 47.4992 136.322 46.8192C136.042 46.4592 135.842 46.0592 135.682 45.6592C135.602 45.4592 135.562 45.1792 135.482 44.9792C135.402 44.7392 135.402 44.5792 135.362 44.3392C135.362 44.2192 135.322 44.1792 135.322 43.9792V43.6592C135.322 43.4192 135.322 43.2192 135.362 42.9792C135.402 42.5392 135.482 42.0592 135.642 41.6592C135.802 41.2192 136.002 40.8192 136.282 40.4992C136.522 40.1392 136.802 39.8592 137.122 39.6192C137.682 39.1392 138.242 38.8992 138.642 38.7392C138.842 38.6592 139.002 38.6192 139.122 38.5792C139.242 38.5392 139.322 38.5392 139.322 38.5392C139.882 38.4192 140.442 38.7392 140.562 39.2992C140.682 39.8592 140.362 40.4192 139.802 40.5392C139.762 40.4592 139.722 40.4592 139.682 40.4592Z" fill="white" fill-opacity="0.07"/>
<path d="M164.203 52.5395C164.203 52.5395 164.203 52.8195 164.123 53.2595C164.043 53.6995 163.923 54.2995 163.683 55.0195C163.443 55.7395 163.083 56.5795 162.403 57.3395C162.083 57.6995 161.683 58.0595 161.203 58.3395C160.963 58.4595 160.723 58.6195 160.483 58.6995L160.083 58.8195L159.723 58.8995C159.323 59.0195 158.723 59.0595 158.243 59.0595C157.723 59.0595 157.243 58.9795 156.803 58.8995C155.883 58.6595 155.123 58.2595 154.523 57.8195C153.923 57.3795 153.523 56.9395 153.243 56.6195C152.963 56.2995 152.843 56.0995 152.843 56.0595C152.683 55.8595 152.763 55.5395 152.963 55.3795C153.163 55.2195 153.483 55.2995 153.643 55.4995C153.643 55.4595 154.123 56.1795 155.203 56.8595C155.723 57.1795 156.403 57.4995 157.123 57.6195C157.483 57.6995 157.883 57.6995 158.243 57.6595C158.643 57.6195 158.923 57.5795 159.403 57.4195L159.683 57.3395L159.923 57.2195C160.083 57.1395 160.243 57.0595 160.363 56.9395C160.643 56.7395 160.883 56.4595 161.083 56.2195C161.483 55.6595 161.723 55.0195 161.883 54.4195C162.043 53.8195 162.083 53.3395 162.123 52.9795C162.163 52.6195 162.123 52.4595 162.123 52.4595C162.123 51.8995 162.603 51.4595 163.163 51.4595C163.763 51.4995 164.243 51.9395 164.203 52.5395Z" fill="white" fill-opacity="0.07"/>
<path d="M132.44 85.6199L130.76 80.9399C130.76 80.9399 134.64 80.3399 132.6 75.2599C131.44 72.4199 128.16 74.6599 128.16 74.6599C128.16 74.6599 127.6 70.5399 123.32 71.4599C119.96 72.1799 119.88 77.5799 121.2 79.2999C122.48 81.0199 123.8 80.8599 123.8 80.8599C123.8 80.8599 121 80.7799 121.44 83.3399C121.88 85.8999 124.08 86.0199 125.76 85.1799C126.56 84.7799 127.16 83.7799 127.16 83.7799L130.8 86.7799C131.12 87.0599 131.6 87.0999 132 86.8999C132.44 86.6999 132.64 86.1399 132.44 85.6199Z" fill="white" fill-opacity="0.07"/>
<path d="M172.357 96.1001C172.197 96.8601 171.918 97.5401 171.598 97.9001C170.638 99.0201 169.117 99.1401 169.117 99.1401C169.117 99.1401 170.478 99.9001 169.478 101.54C168.718 102.74 166.478 102.02 165.878 101.26C165.238 100.5 165.238 99.6201 165.238 99.6201L162.517 101.94C162.077 102.34 161.357 102.3 160.957 101.82C160.597 101.42 160.597 100.78 160.957 100.38L161.317 99.9801L163.517 97.3801C163.517 97.3801 160.397 96.1001 161.517 93.7801C162.517 91.6601 164.518 92.6601 165.038 93.2201C165.518 93.7401 165.598 94.6201 165.598 94.6201C165.598 94.6201 166.518 91.0601 169.838 91.8601C172.318 92.4201 172.677 94.4601 172.357 96.1001Z" fill="white" fill-opacity="0.07"/>
<path d="M87.3213 145.02C87.9613 145.9 88.0013 147.1 87.3613 148.02L87.1213 148.34C86.8813 148.66 86.5213 148.82 86.1613 148.82C85.8813 148.82 85.6413 148.74 85.4013 148.54L81.5613 145.18C81.5613 145.18 79.6813 149.54 74.5613 148.54C71.0013 147.82 70.0813 144.78 70.4813 142.26C70.6413 141.02 71.1213 139.9 71.7613 139.22C72.8813 138.02 74.3213 137.86 75.3613 137.9C74.3213 137.58 72.8413 136.74 72.2813 134.66C71.9213 133.34 72.0013 132.02 72.4813 130.98C73.2413 129.34 74.9613 128.3 77.4013 128.58C81.4413 129.1 81.5213 134.82 81.5213 134.82C81.5213 134.82 82.9213 130.94 86.7613 132.62C90.1213 134.1 89.1613 138.58 86.8813 140.34C85.6813 141.26 84.6413 141.46 84.6413 141.46L87.3213 145.02Z" fill="white" fill-opacity="0.07"/>
<path d="M78.6423 138.62C78.6423 138.62 77.0023 138.3 75.4023 137.86C74.3623 137.54 72.8823 136.74 72.2823 134.62C71.9223 133.3 72.0023 131.98 72.4823 130.94C72.7223 132.34 73.3623 134.54 74.9223 135.98C77.3623 138.22 78.6423 138.62 78.6423 138.62Z" fill="white" fill-opacity="0.07"/>
<path d="M87.1213 148.3C86.8813 148.62 86.5213 148.78 86.1613 148.78C85.8813 148.78 85.6413 148.7 85.4013 148.5L81.5613 145.14C81.5613 145.14 79.6813 149.5 74.5613 148.5C71.0013 147.78 70.0813 144.74 70.4813 142.22C71.0413 143.42 72.2813 144.78 75.1213 145.26C80.8013 146.26 80.9613 142.7 80.9613 142.7L87.1213 148.3Z" fill="white" fill-opacity="0.07"/>
<path d="M102.363 136.18C101.843 136.18 100.123 136.06 98.563 134.62C97.003 133.18 96.203 130.9 96.163 127.9C96.083 120.82 94.723 119.86 93.243 119.42C91.163 118.82 88.923 119.62 88.923 119.62C88.123 119.94 87.243 119.54 86.923 118.74C86.603 117.94 87.003 117.06 87.803 116.74C87.923 116.7 90.963 115.54 94.083 116.42C98.243 117.62 99.163 121.66 99.203 127.82C99.243 129.9 99.723 131.46 100.563 132.3C101.363 133.06 102.283 133.06 102.283 133.06C103.123 132.98 103.843 133.7 103.883 134.54C103.923 135.38 103.283 136.1 102.443 136.14C102.483 136.18 102.443 136.18 102.363 136.18Z" fill="#323B48"/>
<path d="M101.117 114.661C100.717 115.021 99.5567 116.301 99.3967 118.381C99.2767 120.501 100.237 122.701 102.277 124.941C107.037 130.141 106.757 131.781 105.957 133.101C104.837 134.981 102.677 135.901 102.677 135.901C101.877 136.221 101.517 137.101 101.837 137.901C102.157 138.701 103.037 139.061 103.837 138.741C103.957 138.701 106.997 137.461 108.637 134.661C110.837 130.901 108.717 127.38 104.597 122.82C103.197 121.3 102.477 119.82 102.517 118.62C102.557 117.5 103.237 116.901 103.277 116.861C103.917 116.341 103.957 115.341 103.397 114.701C102.837 114.061 101.917 113.981 101.237 114.541C101.197 114.581 101.157 114.621 101.117 114.661Z" fill="#868991"/>
<path d="M172.001 123.82C170.481 123.82 168.801 123.34 167.281 122.14C164.681 120.14 162.961 121.5 162.961 121.54C162.321 122.1 161.321 122.02 160.801 121.34C160.241 120.7 160.321 119.7 161.001 119.18C162.241 118.14 165.561 116.9 169.201 119.7C171.161 121.22 173.241 120.82 174.041 120.06C174.801 119.38 175.241 117.42 175.321 116.26C175.361 115.42 176.121 114.74 176.961 114.82C177.801 114.86 178.441 115.62 178.401 116.46C178.361 116.86 178.081 120.58 176.121 122.34C175.121 123.26 173.641 123.82 172.001 123.82Z" fill="#868991"/>
<path d="M181.243 149.42C181.243 149.42 177.963 145.5 177.483 144.9C176.203 143.34 175.283 142.86 175.283 142.86C175.283 142.86 176.443 142.7 177.963 144.62C179.483 146.5 181.243 149.42 181.243 149.42Z" fill="#0A2656"/>
<path d="M128.005 100.661C128.005 100.661 111.165 120.821 110.525 120.301C110.365 120.181 110.085 119.261 109.725 117.781C108.765 113.581 107.445 104.781 107.285 95.4206C107.085 82.8206 107.405 78.9806 110.765 77.4206C113.245 76.2606 120.005 87.4206 124.445 94.9006C126.045 97.4606 127.285 99.5806 128.005 100.661Z" fill="#323B48"/>
<path d="M128.007 100.66C128.007 100.66 111.167 120.82 110.527 120.3C110.367 120.18 110.087 119.26 109.727 117.78C111.367 113.58 113.367 109.14 115.567 105.78C119.127 100.42 122.327 96.9404 124.447 94.9004C126.047 97.4604 127.287 99.5804 128.007 100.66Z" fill="#323B48"/>
<path d="M186.323 169.98C185.283 172.14 175.643 169.14 167.763 166.42C166.243 165.9 164.763 165.38 163.403 164.9C160.283 163.82 158.203 160.86 158.203 157.54C158.243 149.82 157.523 137.54 159.003 136.9C160.763 136.1 169.483 144.7 177.443 153.94C185.683 163.5 187.883 166.66 186.323 169.98Z" fill="#323B48"/>
<path d="M167.763 166.42C166.243 165.9 164.763 165.38 163.403 164.9C160.283 163.82 158.203 160.86 158.203 157.54C158.243 149.82 157.523 137.54 159.003 136.9C159.043 136.9 162.323 147.06 164.563 155.06C165.843 159.7 166.923 163.5 167.763 166.42Z" fill="#323B48"/>
<path d="M162.007 116.9C161.727 127.82 160.127 145.98 153.607 163.98C147.967 179.58 143.087 189.94 139.847 196.06C137.167 201.1 135.607 203.34 135.607 203.34C135.607 203.34 131.367 205.46 123.207 206.1C118.647 206.46 112.887 206.38 105.967 205.22C86.6074 201.98 84.5674 195.9 84.5674 195.9C84.5674 195.9 84.2874 192.42 85.2074 185.58C86.3674 176.78 89.5674 162.46 97.9274 142.9C107.327 121.02 118.047 108.14 124.687 101.62C128.607 97.7803 131.127 96.1403 131.127 96.1403C131.127 96.1403 136.327 94.0203 147.087 97.3803C151.367 98.7003 154.607 100.42 156.887 102.06C160.407 104.5 161.847 106.66 161.847 106.66C161.847 106.66 162.207 110.58 162.007 116.9Z" fill="#485368"/>
<path d="M162.007 116.9C161.727 127.82 160.127 145.98 153.607 163.98C147.967 179.58 143.087 189.94 139.847 196.06C137.167 201.1 135.607 203.34 135.607 203.34C135.607 203.34 131.367 205.46 123.207 206.1C128.407 198.98 136.127 186.62 143.807 167.9C156.287 137.5 157.047 110.78 156.927 102.06C160.447 104.5 161.887 106.66 161.887 106.66C161.887 106.66 162.207 110.58 162.007 116.9Z" fill="#434D60"/>
<path d="M162.006 116.9C160.606 115.66 158.806 114.22 156.646 112.74C155.766 112.14 154.806 111.5 153.766 110.86C153.206 110.54 152.646 110.18 152.046 109.86C149.686 108.5 147.006 107.22 144.086 106.1C143.846 106.02 143.646 105.94 143.406 105.86C142.966 105.7 142.566 105.54 142.166 105.42C138.806 104.22 135.846 103.42 133.326 102.86C132.606 102.7 131.886 102.58 131.246 102.42C128.446 101.9 126.286 101.74 124.766 101.66C128.686 97.8203 131.206 96.1803 131.206 96.1803C131.206 96.1803 132.806 95.5403 136.086 95.5403C136.806 95.5403 137.606 95.5803 138.486 95.6603C140.566 95.8203 143.086 96.2603 146.046 97.1003C146.406 97.2203 146.806 97.3003 147.166 97.4203C147.446 97.5003 147.726 97.5803 148.006 97.7003C150.326 98.5003 152.326 99.3803 154.006 100.26C154.686 100.62 155.286 100.98 155.886 101.38C156.286 101.62 156.606 101.86 156.966 102.1C160.486 104.54 161.926 106.7 161.926 106.7C161.926 106.7 162.206 110.58 162.006 116.9Z" fill="#5E6773"/>
<path d="M162.006 116.901C160.606 115.661 158.806 114.221 156.646 112.741C156.966 108.061 156.966 104.421 156.966 102.101C160.486 104.541 161.926 106.701 161.926 106.701C161.926 106.701 162.206 110.581 162.006 116.901Z" fill="#434D60"/>
<path d="M155.883 101.38L154.043 110.38C154.003 110.58 153.923 110.74 153.763 110.9C153.203 110.58 152.643 110.22 152.043 109.9L154.003 100.3C154.683 100.66 155.323 101.02 155.883 101.38Z" fill="#434D60"/>
<path d="M148.004 97.7008L144.084 106.101C143.844 106.021 143.644 105.941 143.404 105.861C142.964 105.701 142.564 105.541 142.164 105.421L146.004 97.1008C146.364 97.2208 146.764 97.3008 147.124 97.4208C147.444 97.5408 147.724 97.6208 148.004 97.7008Z" fill="#434D60"/>
<path d="M138.482 95.661C138.442 95.741 138.402 95.821 138.362 95.901L133.322 102.861C132.602 102.701 131.882 102.581 131.242 102.421C131.282 102.261 131.322 102.101 131.442 101.941L136.082 95.501C136.802 95.541 137.602 95.581 138.482 95.661Z" fill="#434D60"/>
<path d="M109.546 190.909C118.949 194.135 130.198 186.18 134.672 173.141C139.145 160.101 135.148 146.916 125.745 143.69C116.342 140.464 105.092 148.419 100.619 161.459C96.146 174.498 100.143 187.683 109.546 190.909Z" fill="#5E6773"/>
<path d="M110.835 189.886C120.238 193.112 131.447 185.275 135.87 172.382C140.293 159.489 136.256 146.422 126.852 143.196C117.449 139.97 106.241 147.807 101.818 160.7C97.3944 173.593 101.432 186.66 110.835 189.886Z" fill="#23272E"/>
<path d="M131.77 171.18C128.17 181.62 119.25 187.98 111.77 185.42C107.85 184.06 105.09 180.5 103.93 175.9C104.89 176.54 105.93 177.1 107.05 177.46C116.33 180.66 127.49 172.7 131.93 159.7C132.21 158.9 132.45 158.1 132.65 157.3C133.65 161.42 133.45 166.34 131.77 171.18Z" fill="#868991"/>
<path d="M139.885 196.1C137.205 201.14 135.645 203.38 135.645 203.38C135.645 203.38 131.405 205.5 123.245 206.14C118.685 206.5 112.925 206.42 106.005 205.26C98.8445 204.06 94.0845 202.46 90.8845 200.94C85.4445 198.34 84.6045 195.94 84.6045 195.94C84.6045 195.94 84.3245 192.46 85.2445 185.62C86.9245 187.18 89.1645 188.94 92.1245 190.58C96.6845 193.1 102.885 195.46 111.325 196.7C117.645 197.62 123.685 197.74 129.085 197.38C133.085 197.18 136.725 196.66 139.885 196.1Z" fill="#323B48"/>
<path d="M139.886 196.1C137.206 201.14 135.646 203.38 135.646 203.38C135.646 203.38 131.406 205.5 123.246 206.14C124.966 203.78 126.926 200.9 129.086 197.38C133.086 197.18 136.726 196.66 139.886 196.1Z" fill="#434D60"/>
<path d="M92.1245 190.62L90.8845 200.98C85.4445 198.38 84.6045 195.98 84.6045 195.98C84.6045 195.98 84.3245 192.5 85.2445 185.66C86.9245 187.22 89.1645 188.94 92.1245 190.62Z" fill="#5E6773"/>
</svg>
