<svg width="21" height="21" viewBox="0 0 21 21" fill="none" xmlns="http://www.w3.org/2000/svg">
<g clip-path="url(#clip0_7162_706)">
<path opacity="0.35" fill-rule="evenodd" clip-rule="evenodd" d="M9.53934 2.19377C9.59746 2.19322 9.65558 2.19322 9.71369 2.19377H10.0283C10.3151 2.19377 10.5486 2.42427 10.5523 2.71102L10.5564 3.0257L10.5464 9.96353C10.546 10.2532 10.7807 10.4883 11.0704 10.4883H18.3161C18.6055 10.4883 18.8402 10.723 18.8402 11.0124V11.3203C18.8342 16.3581 14.7515 20.4404 9.71365 20.4459C4.67348 20.494 0.548561 16.4472 0.500425 11.407C0.452289 6.36683 4.49917 2.24191 9.53934 2.19377Z" fill="#25D695"/>
<path fill-rule="evenodd" clip-rule="evenodd" d="M12.2246 1.05884C12.2246 0.76843 12.4614 0.531699 12.7512 0.55117C16.9026 0.83014 20.2201 4.14798 20.4987 8.29945C20.5181 8.58918 20.2814 8.82598 19.991 8.82598H12.7487C12.4592 8.82598 12.2246 8.59135 12.2246 8.30192V1.05884Z" fill="url(#paint0_linear_7162_706)"/>
</g>
<defs>
<linearGradient id="paint0_linear_7162_706" x1="20.4998" y1="0.550049" x2="12.2238" y2="8.82521" gradientUnits="userSpaceOnUse">
<stop stop-color="#25D695"/>
<stop offset="1" stop-color="#179B69"/>
</linearGradient>
<clipPath id="clip0_7162_706">
<rect width="21" height="21" fill="white"/>
</clipPath>
</defs>
</svg>
