<svg width="21" height="21" viewBox="0 0 21 21" fill="none" xmlns="http://www.w3.org/2000/svg">
<g clip-path="url(#clip0_7152_15)">
<path fill-rule="evenodd" clip-rule="evenodd" d="M9.53934 2.19371C9.59746 2.19316 9.65558 2.19316 9.71369 2.19371H10.0283C10.3151 2.19371 10.5486 2.42421 10.5523 2.71096L10.5564 3.02564L10.5464 9.96347C10.546 10.2532 10.7807 10.4883 11.0704 10.4883H18.3161C18.6055 10.4883 18.8402 10.7229 18.8402 11.0123V11.3202C18.8342 16.358 14.7515 20.4403 9.71365 20.4459C4.67348 20.494 0.548561 16.4471 0.500425 11.4069C0.452289 6.36676 4.49917 2.24185 9.53934 2.19371ZM17.7889 11.5364C17.6687 15.8957 14.0997 19.3929 9.7125 19.3977V19.3977L9.70364 19.3978C5.2423 19.4404 1.59109 15.8583 1.54849 11.3969C1.50601 6.94938 5.0659 3.30696 9.50801 3.24227L9.49828 9.96195C9.49702 10.8311 10.2013 11.5364 11.0704 11.5364H17.7889Z" fill="#5E6773"/>
<path fill-rule="evenodd" clip-rule="evenodd" d="M13.2727 7.77781H19.3889C18.9173 4.62538 16.4251 2.13285 13.2727 1.66089V7.77781ZM12.2246 1.05878C12.2246 0.768369 12.4614 0.531638 12.7512 0.551109C16.9026 0.830079 20.2201 4.14792 20.4987 8.29938C20.5181 8.58912 20.2814 8.82592 19.991 8.82592H12.7487C12.4592 8.82592 12.2246 8.59129 12.2246 8.30186V1.05878Z" fill="#868991"/>
</g>
<defs>
<clipPath id="clip0_7152_15">
<rect width="21" height="21" fill="white"/>
</clipPath>
</defs>
</svg>
