<svg width="18" height="18" viewBox="0 0 18 18" fill="none" xmlns="http://www.w3.org/2000/svg">
<circle cx="9" cy="9" r="9" fill="#2B3138"/>
<path d="M8.33909 12.2419H9.54272V13.5H8.33909V12.2419ZM6.30078 7.39718C6.30078 6.52621 6.54675 5.82661 7.03868 5.29839C7.53062 4.76613 8.20602 4.5 9.06489 4.5C9.85925 4.5 10.4943 4.72782 10.9701 5.18347C11.45 5.63508 11.6899 6.21371 11.6899 6.91935C11.6899 7.34677 11.6012 7.69355 11.4238 7.95968C11.2504 8.22581 10.8976 8.61694 10.3653 9.13306C9.9782 9.50806 9.72618 9.82661 9.60925 10.0887C9.49635 10.3468 9.43989 10.7298 9.43989 11.2379H8.36328C8.36328 10.6613 8.43183 10.1976 8.56893 9.84677C8.70602 9.49194 9.00643 9.08669 9.47014 8.63105L9.95401 8.15323C10.0992 8.01613 10.2161 7.87298 10.3048 7.72379C10.4661 7.46169 10.5467 7.18952 10.5467 6.90726C10.5467 6.5121 10.4278 6.16935 10.1899 5.87903C9.95602 5.58871 9.56691 5.44355 9.02256 5.44355C8.34917 5.44355 7.88344 5.69355 7.62538 6.19355C7.48022 6.47177 7.39756 6.87298 7.37739 7.39718H6.30078Z" fill="#868991"/>
</svg>
