<svg width="21" height="21" viewBox="0 0 21 21" fill="none" xmlns="http://www.w3.org/2000/svg">
<path fill-rule="evenodd" clip-rule="evenodd" d="M16.0572 6.51817L17.709 4.4666L16.5332 3.29079L14.4538 4.96515L13.777 4.58895C13.3145 4.33188 12.8407 4.13485 12.3843 4.01471L11.6139 3.81191L11.3422 1.15H9.65774L9.38894 3.78344L8.65329 4.00411C8.11808 4.16466 7.66567 4.34305 7.22267 4.58911L6.54598 4.96498L4.4666 3.29076L3.29076 4.4666L4.96513 6.54617L4.58895 7.22296C4.33188 7.68547 4.13485 8.15929 4.01471 8.61564L3.81191 9.38603L1.15 9.65774V11.3125L3.78344 11.5813L4.00411 12.3169C4.16466 12.8521 4.34305 13.3046 4.58911 13.7476L4.96498 14.4242L3.29076 16.5036L4.4666 17.6795L6.54617 16.0051L7.22296 16.3813C7.68547 16.6383 8.15929 16.8354 8.61564 16.9555L9.38603 17.1583L9.65774 19.8202H11.3125L11.5813 17.1868L12.3169 16.9661C12.8521 16.8056 13.3046 16.6272 13.7476 16.3811L14.4242 16.0052L16.5036 17.6795L17.6759 16.5072L16.0327 14.4867L16.4108 13.8063C16.6679 13.3438 16.8649 12.87 16.9851 12.4137L17.1879 11.6433L19.8498 11.3716L19.8499 9.6873L17.2168 9.41853L16.996 8.68321C16.8411 8.16753 16.6315 7.66674 16.3874 7.17858L16.0572 6.51817ZM21 8.64871L20.9998 12.4102L18.0972 12.7064C17.949 13.2692 17.7123 13.832 17.416 14.365L19.2228 16.5867L16.5867 19.2228L14.306 17.3864C13.7729 17.6825 13.2397 17.8899 12.6474 18.0676L12.3511 20.9702H8.61915L8.32287 18.0676C7.76011 17.9195 7.1973 17.6827 6.66426 17.3864L4.38355 19.2228L1.74747 16.5867L3.58379 14.306C3.28771 13.7729 3.08029 13.2397 2.9026 12.6474L0 12.3511V8.61915L2.9026 8.32287C3.05075 7.76011 3.28751 7.1973 3.58379 6.66426L1.74747 4.38355L4.38355 1.74746L6.66426 3.58379C7.1973 3.28771 7.73055 3.08029 8.32287 2.9026L8.61915 0H12.3808L12.6771 2.9026C13.2398 3.05075 13.8027 3.28751 14.3357 3.58379L16.6162 1.74746L19.2523 4.38355L17.416 6.66426C17.6825 7.1973 17.9195 7.76011 18.0974 8.35244L21 8.64871Z" fill="#5E6773"/>
<path fill-rule="evenodd" clip-rule="evenodd" d="M10.5 14.4C12.6401 14.4 14.375 12.6651 14.375 10.525C14.375 8.38495 12.6401 6.65002 10.5 6.65002C8.3599 6.65002 6.625 8.38495 6.625 10.525C6.625 12.6651 8.3599 14.4 10.5 14.4ZM10.5 13.275C12.0188 13.275 13.25 12.0438 13.25 10.525C13.25 9.00623 12.0188 7.77502 10.5 7.77502C8.98122 7.77502 7.75 9.00623 7.75 10.525C7.75 12.0438 8.98122 13.275 10.5 13.275Z" fill="#868991"/>
</svg>
