<svg width="21" height="21" viewBox="0 0 21 21" fill="none" xmlns="http://www.w3.org/2000/svg">
<path fill-rule="evenodd" clip-rule="evenodd" d="M7.29716 7.67225C8.6661 7.67225 9.81931 6.5303 9.81931 5.06742C9.81931 3.60454 8.6661 2.46259 7.29716 2.46259C5.92821 2.46259 4.775 3.60454 4.775 5.06742C4.775 6.5303 5.92821 7.67225 7.29716 7.67225ZM10.9693 5.06742C10.9693 7.14116 9.32523 8.82225 7.29716 8.82225C5.26908 8.82225 3.625 7.14116 3.625 5.06742C3.625 2.99369 5.26908 1.31259 7.29716 1.31259C9.32523 1.31259 10.9693 2.99369 10.9693 5.06742Z" fill="#868991"/>
<path fill-rule="evenodd" clip-rule="evenodd" d="M15.5427 7.57303C16.3957 7.57303 17.1307 6.85872 17.1307 5.92337C17.1307 4.98802 16.3957 4.27372 15.5427 4.27372C14.6897 4.27372 13.9547 4.98802 13.9547 5.92337C13.9547 6.85872 14.6897 7.57303 15.5427 7.57303ZM18.2807 5.92337C18.2807 7.46958 17.0549 8.72303 15.5427 8.72303C14.0305 8.72303 12.8047 7.46958 12.8047 5.92337C12.8047 4.37717 14.0305 3.12372 15.5427 3.12372C17.0549 3.12372 18.2807 4.37717 18.2807 5.92337Z" fill="#5E6773"/>
<path fill-rule="evenodd" clip-rule="evenodd" d="M19.834 15.4167C19.5759 13.8483 19.061 12.7197 18.3799 11.9923C17.7113 11.2784 16.8017 10.8618 15.5431 10.8618C15.1367 10.8618 14.7774 10.9026 14.4557 10.9793C15.454 12.3521 16.1494 14.0695 16.5495 16.0609C17.6403 16.0231 18.574 15.8973 19.2254 15.6919C19.5566 15.5875 19.7427 15.4844 19.834 15.4167ZM13.6469 10.0246C13.6473 10.0245 13.6477 10.0243 13.6481 10.0242C14.2095 9.81593 14.8367 9.71179 15.5431 9.71179C18.6355 9.71179 20.4394 11.8198 20.987 15.344C21.2062 16.6894 18.714 17.2248 15.8214 17.2229C15.6851 17.2228 15.5498 17.1162 15.5437 16.9801C15.5431 16.9669 15.5421 16.9513 15.54 16.9382C15.122 14.3588 14.2283 12.331 12.9218 10.9191C12.9085 10.9047 12.8915 10.8898 12.8761 10.8775C12.707 10.7434 12.7345 10.4856 12.9194 10.3744C13.1077 10.2611 13.3042 10.1624 13.5098 10.0782C13.5551 10.0596 13.6008 10.0418 13.6469 10.0246Z" fill="#5E6773"/>
<path fill-rule="evenodd" clip-rule="evenodd" d="M2.36967 18.002C3.5647 18.362 5.3271 18.5419 7.29652 18.5419C9.26594 18.5419 11.0283 18.362 12.2234 18.002C12.8295 17.8194 13.1825 17.6214 13.3531 17.466C13.3911 17.4314 13.414 17.4043 13.4271 17.3863C13.4371 17.3725 13.4415 17.3639 13.443 17.3606C13.4431 17.3573 13.4428 17.3503 13.4411 17.3389C13.077 15.1231 12.3462 13.4893 11.3429 12.4225C10.3667 11.3845 9.0527 10.7961 7.29652 10.7961C5.53639 10.7961 4.22299 11.379 3.24885 12.4115C2.24698 13.4734 1.51583 15.1064 1.15165 17.3407L0.0167106 17.1557L1.15218 17.3374C1.15021 17.3497 1.14997 17.3572 1.15 17.3606C1.15156 17.3639 1.15595 17.3725 1.16597 17.3863C1.17908 17.4043 1.20194 17.4314 1.2399 17.466C1.41054 17.6214 1.76357 17.8194 2.36967 18.002ZM14.5764 17.1557C13.8033 12.4457 11.3874 9.64606 7.29652 9.64606C3.20561 9.64606 0.789716 12.4128 0.0166301 17.1557C-0.273277 18.9673 3.27003 19.6919 7.29652 19.6919C11.323 19.6919 14.8663 18.9673 14.5764 17.1557Z" fill="#868991"/>
</svg>
