<svg width="21" height="21" viewBox="0 0 21 21" fill="none" xmlns="http://www.w3.org/2000/svg">
<g clip-path="url(#clip0_6156_15395)">
<path fill-rule="evenodd" clip-rule="evenodd" d="M15.5974 4.02276C15.5983 4.32902 15.4771 4.62302 15.2606 4.83959L2.9124 17.188C2.58351 17.5169 2.08887 17.6153 1.65914 17.4373C1.22941 17.2593 0.949219 16.84 0.949219 16.3749V7.0395C0.949219 6.59598 1.20426 6.19199 1.60467 6.00126C2.00508 5.81054 2.47948 5.86706 2.82387 6.14653L5.03193 7.93841L11.6831 1.28686C12.1302 0.839755 12.8544 0.837444 13.3043 1.28169L15.2554 3.2081C15.4733 3.42328 15.5964 3.7165 15.5974 4.02276ZM5.11217 9.48455L12.4963 2.10001L14.4474 4.02642L2.09922 16.3749V7.0395L5.11217 9.48455Z" fill="#868991"/>
<path fill-rule="evenodd" clip-rule="evenodd" d="M5.69141 16.9484C5.69156 16.6432 5.81303 16.3506 6.02906 16.135L18.0809 4.10746C18.41 3.77905 18.9044 3.68108 19.3339 3.85922C19.7633 4.03735 20.0433 4.45654 20.0433 4.92146V14.2568C20.0433 14.7229 19.762 15.1429 19.331 15.3203C18.9 15.4977 18.4045 15.3974 18.0764 15.0663L16.1729 13.1456L9.60566 19.7132C9.38999 19.9289 9.09748 20.05 8.79248 20.05C8.48748 20.05 8.19496 19.9289 7.97929 19.7132L6.02823 17.7622C5.81242 17.5463 5.69125 17.2536 5.69141 16.9484ZM16.1766 11.5155L18.8933 14.2568V4.92146L6.84164 16.9487L8.79246 18.9L16.1766 11.5155Z" fill="#5E6773"/>
</g>
<defs>
<clipPath id="clip0_6156_15395">
<rect width="21" height="21" fill="white"/>
</clipPath>
</defs>
</svg>
