<svg width="14" height="14" viewBox="0 0 14 14" fill="none" xmlns="http://www.w3.org/2000/svg">
<path d="M12.3971 0.14285H4.03384C3.66914 0.142948 3.31932 0.287908 3.06135 0.545793C2.80328 0.803658 2.65813 1.15338 2.65783 1.51809V2.74315L1.5991 2.74325C1.23449 2.74364 0.884867 2.8887 0.627002 3.14657C0.369137 3.40444 0.224059 3.75406 0.223682 4.11866V12.4819C0.224074 12.8465 0.369135 13.1961 0.627002 13.4539C0.884867 13.7118 1.23449 13.8567 1.5991 13.8571H9.96233C10.327 13.857 10.6769 13.712 10.9348 13.4542C11.1929 13.1963 11.338 12.8466 11.3383 12.4819V11.2567H12.3979C12.7625 11.2563 13.1121 11.1113 13.37 10.8534C13.6278 10.5955 13.7729 10.2459 13.7733 9.88129V1.51806C13.7729 1.15336 13.6277 0.803631 13.3697 0.545766C13.1117 0.287901 12.7619 0.14295 12.3971 0.14285ZM12.9152 9.88134C12.9151 10.0187 12.8604 10.1504 12.7632 10.2475C12.6661 10.3447 12.5344 10.3994 12.3971 10.3995H11.3383V4.11866C11.338 3.75405 11.193 3.40443 10.9351 3.14656C10.6773 2.8887 10.3277 2.74362 9.96311 2.74324H3.51662V1.51808C3.51672 1.38076 3.57141 1.24902 3.66854 1.15189C3.76567 1.05476 3.8974 1.00007 4.03472 0.999971H12.3972C12.5345 1.00007 12.6663 1.05476 12.7634 1.15189C12.8605 1.24902 12.9152 1.38075 12.9153 1.51808L12.9152 9.88134Z" fill="url(#paint0_linear_6156_11085)"/>
<defs>
<linearGradient id="paint0_linear_6156_11085" x1="13.7733" y1="0.142822" x2="0.0600092" y2="13.6914" gradientUnits="userSpaceOnUse">
<stop stop-color="#25D695"/>
<stop offset="1" stop-color="#179B69"/>
</linearGradient>
</defs>
</svg>
