<svg width="160" height="162" viewBox="0 0 160 162" fill="none" xmlns="http://www.w3.org/2000/svg">
<circle cx="78.4601" cy="79.1274" r="69.1032" fill="url(#paint0_radial_6156_8911)"/>
<path d="M74.3688 115.277C93.2506 119.082 111.615 106.728 115.388 87.682C119.16 68.6364 106.912 50.1123 88.0299 46.3072C69.148 42.5021 50.7832 54.8569 47.0108 73.9025C43.2384 92.948 55.487 111.472 74.3688 115.277Z" fill="url(#paint1_linear_6156_8911)"/>
<path d="M71.5729 114.714C90.4547 118.519 108.82 106.164 112.592 87.1185C116.364 68.073 104.116 49.5489 85.234 45.7438C66.3521 41.9387 47.9873 54.2935 44.2149 73.339C40.4425 92.3845 52.6911 110.909 71.5729 114.714Z" fill="url(#paint2_linear_6156_8911)"/>
<path d="M64.5082 106.298C78.7818 114.038 96.574 108.642 104.248 94.2446C111.922 79.8472 106.572 61.9008 92.2988 54.1601C78.0252 46.4194 60.233 51.8157 52.5588 66.213C44.8846 80.6104 50.2345 98.5569 64.5082 106.298Z" fill="url(#paint3_linear_6156_8911)"/>
<g filter="url(#filter0_b_6156_8911)">
<path d="M111.153 64.1221C111.501 64.7454 111.855 65.3686 112.17 66.0198C128.4 66.6895 139.257 69.2337 139.585 73.1266C139.895 76.8547 130.468 80.9716 115.708 84.2691C105.894 86.4605 93.7269 88.2909 80.484 89.4016C67.2411 90.5124 54.9417 90.7329 44.9007 90.206C29.7999 89.4132 19.8192 86.9236 19.509 83.1955C19.1837 79.3003 29.4805 74.9825 45.3858 71.6177C45.5884 70.9329 45.799 70.2539 46.0398 69.5842C18.3398 74.7817 -0.611188 82.8276 0.0150697 90.2849C0.651746 97.9187 21.6019 102.748 50.8334 103.066C60.3257 103.17 70.6965 102.799 81.5293 101.892C92.3621 100.984 102.638 99.6226 111.983 97.9454C140.758 92.7653 160.622 84.5129 159.985 76.8779C159.36 69.4124 139.336 64.6339 111.153 64.1221Z" fill="white" fill-opacity="0.07"/>
</g>
<g opacity="0.5">
<path opacity="0.75" d="M6.54004 46.9666C4.70731 47.4317 3.70456 48.5503 3.31184 50.4912C2.8458 48.5697 1.91896 47.3708 -0.000167542 47.0054C1.7959 46.4655 2.94528 45.4355 3.28302 43.406C3.72288 45.3773 4.7204 46.5181 6.54004 46.9666ZM3.30397 45.5711C2.91125 46.0225 2.43736 46.5679 2.097 46.9583C2.46616 47.3653 2.95575 47.8997 3.42702 48.4174C3.79357 48.0076 4.28056 47.4622 4.64972 47.0524C4.1575 46.5098 3.69146 45.9975 3.30397 45.5711Z" fill="url(#paint4_linear_6156_8911)"/>
<path d="M113.364 115.901C112.448 116.116 111.945 116.632 111.751 117.528C111.517 116.642 111.056 116.088 110.094 115.919C110.991 115.671 111.567 115.195 111.735 114.258C111.956 115.169 112.454 115.693 113.364 115.901ZM111.746 115.258C111.548 115.466 111.313 115.719 111.141 115.898C111.325 116.086 111.572 116.334 111.808 116.572C111.992 116.382 112.236 116.131 112.42 115.941C112.171 115.691 111.937 115.455 111.746 115.258Z" fill="url(#paint5_linear_6156_8911)"/>
<path opacity="0.25" d="M76.3026 26.5106C74.4966 26.5106 73.0325 27.9746 73.0325 29.7807C73.0325 31.5867 74.4966 33.0508 76.3026 33.0508C78.1087 33.0508 79.5728 31.5867 79.5728 29.7807C79.5728 27.9747 78.1087 26.5106 76.3026 26.5106Z" stroke="url(#paint6_linear_6156_8911)" stroke-width="0.5" stroke-miterlimit="10"/>
<path opacity="0.5" d="M18.4481 109.652L22.188 110.919L23.4548 107.179L19.7148 105.912L18.4481 109.652Z" stroke="url(#paint7_linear_6156_8911)" stroke-width="0.5" stroke-miterlimit="10"/>
<path d="M104.62 47.748C104.62 47.748 114.52 48.5857 112.562 38.8592C112.048 33.5729 101.465 35.6809 103.2 40.6824C104.389 44.0058 107.105 43.784 108.503 42.8943C109.901 42.0046 109.725 39.664 108.632 38.9988C107.542 38.3336 105.559 39.1904 105.573 40.1321C105.587 41.0738 106.303 42.0347 107.061 41.7911" stroke="#7C7C7C" stroke-miterlimit="10"/>
<path opacity="0.75" d="M95.9235 134.676C95.9235 134.676 95.6388 146.143 106.79 143.209C112.887 142.248 109.706 130.2 104.023 132.546C100.249 134.147 100.697 137.262 101.825 138.813C102.953 140.364 105.656 139.995 106.353 138.692C107.049 137.389 105.916 135.163 104.824 135.246C103.735 135.328 102.668 136.218 103.003 137.075" stroke="#7C7C7C" stroke-miterlimit="10"/>
<path d="M40.3311 131.6C40.3311 131.6 39.1048 138.328 33.0467 135.255C29.656 133.949 32.9488 127.303 35.9316 129.369C37.9084 130.766 37.2721 132.529 36.4374 133.297C35.5999 134.064 34.0908 133.52 33.8488 132.673C33.6068 131.825 34.5286 130.664 35.1458 130.846C35.763 131.028 36.2688 131.677 35.9724 132.136" stroke="#7C7C7C" stroke-miterlimit="10"/>
<path opacity="0.5" d="M38.6115 47.7661C38.6115 47.7661 27.2243 45.773 32.4271 35.9292C34.6378 30.4199 45.8832 35.7682 42.3878 40.6149C40.0242 43.8249 37.0404 42.7927 35.7418 41.4358C34.4432 40.0763 35.3664 37.6213 36.7985 37.228C38.2306 36.8347 40.1938 38.3314 39.8879 39.3346C39.582 40.3377 38.4808 41.1587 37.705 40.6756" stroke="#7C7C7C" stroke-miterlimit="10"/>
<path opacity="0.25" d="M137.353 108.659C137.353 108.659 136.81 101.518 144.278 103.021C148.342 103.442 146.612 111.047 142.777 109.749C140.231 108.861 140.429 106.905 141.127 105.906C141.826 104.907 143.625 105.056 144.128 105.849C144.628 106.643 143.947 108.062 143.226 108.044C142.501 108.025 141.768 107.498 141.964 106.956" stroke="#7C7C7C" stroke-miterlimit="10"/>
</g>
<defs>
<filter id="filter0_b_6156_8911" x="-2" y="62.1221" width="164" height="42.9609" filterUnits="userSpaceOnUse" color-interpolation-filters="sRGB">
<feFlood flood-opacity="0" result="BackgroundImageFix"/>
<feGaussianBlur in="BackgroundImageFix" stdDeviation="1"/>
<feComposite in2="SourceAlpha" operator="in" result="effect1_backgroundBlur_6156_8911"/>
<feBlend mode="normal" in="SourceGraphic" in2="effect1_backgroundBlur_6156_8911" result="shape"/>
</filter>
<radialGradient id="paint0_radial_6156_8911" cx="0" cy="0" r="1" gradientUnits="userSpaceOnUse" gradientTransform="translate(78.4601 79.1274) rotate(90) scale(69.1032)">
<stop stop-color="#999999" stop-opacity="0.15"/>
<stop offset="0.848111" stop-color="#1B1D23" stop-opacity="0"/>
</radialGradient>
<linearGradient id="paint1_linear_6156_8911" x1="52.3381" y1="52.4464" x2="155.34" y2="185.305" gradientUnits="userSpaceOnUse">
<stop stop-color="#596681"/>
<stop offset="0.495086" stop-color="#1F262E"/>
</linearGradient>
<linearGradient id="paint2_linear_6156_8911" x1="49.5422" y1="51.8829" x2="152.544" y2="184.742" gradientUnits="userSpaceOnUse">
<stop stop-color="#2E333E"/>
<stop offset="0.519038" stop-color="#1F262E"/>
</linearGradient>
<linearGradient id="paint3_linear_6156_8911" x1="62.0716" y1="50.2603" x2="112.292" y2="182.862" gradientUnits="userSpaceOnUse">
<stop stop-color="#596681"/>
<stop offset="0.495086" stop-color="#1F262E"/>
</linearGradient>
<linearGradient id="paint4_linear_6156_8911" x1="6.54041" y1="46.9482" x2="0.00224106" y2="46.9482" gradientUnits="userSpaceOnUse">
<stop stop-color="#F2F2F2"/>
<stop offset="0.8992" stop-color="#DBDBDB"/>
</linearGradient>
<linearGradient id="paint5_linear_6156_8911" x1="113.363" y1="115.894" x2="110.093" y2="115.894" gradientUnits="userSpaceOnUse">
<stop stop-color="#F2F2F2"/>
<stop offset="0.8992" stop-color="#DBDBDB"/>
</linearGradient>
<linearGradient id="paint6_linear_6156_8911" x1="79.8422" y1="29.782" x2="72.7614" y2="29.782" gradientUnits="userSpaceOnUse">
<stop stop-color="#F2F2F2"/>
<stop offset="0.8992" stop-color="#DBDBDB"/>
</linearGradient>
<linearGradient id="paint7_linear_6156_8911" x1="23.6487" y1="109.331" x2="18.2527" y2="107.504" gradientUnits="userSpaceOnUse">
<stop stop-color="#F2F2F2"/>
<stop offset="0.8992" stop-color="#DBDBDB"/>
</linearGradient>
</defs>
</svg>
