<svg width="120" height="24" viewBox="0 0 120 24" fill="none" xmlns="http://www.w3.org/2000/svg">
<path d="M34.4267 6.29363C33.0056 6.29363 31.9194 6.82412 31.168 7.8851C30.4166 8.94608 30.0409 10.3988 30.0409 12.2433C30.0409 14.1041 30.384 15.5487 31.07 16.577C31.7724 17.589 32.8913 18.095 34.4267 18.095C35.129 18.095 35.8396 18.0134 36.5583 17.8502C37.277 17.6869 38.0528 17.4584 38.8859 17.1646V20.2741C38.1182 20.5842 37.3586 20.8128 36.6073 20.9597C35.8559 21.1066 35.0147 21.18 34.0836 21.18C32.2706 21.18 30.7841 20.8128 29.6244 20.0782C28.4647 19.3274 27.6072 18.2827 27.0518 16.9443C26.4964 15.5895 26.2188 14.0143 26.2188 12.2188C26.2188 10.4559 26.5373 8.89712 27.1743 7.54232C27.8113 6.18753 28.7342 5.12655 29.9429 4.35938C31.168 3.5922 32.6626 3.20862 34.4267 3.20862C35.2924 3.20862 36.1581 3.32288 37.0238 3.5514C37.9058 3.76359 38.747 4.0574 39.5474 4.43283L38.3469 7.44439C37.6935 7.13425 37.032 6.86493 36.3623 6.63641C35.7089 6.40789 35.0637 6.29363 34.4267 6.29363Z" fill="white"/>
<path d="M54.4618 14.2265C54.4618 16.4464 53.8737 18.1603 52.6977 19.3682C51.538 20.5761 49.9535 21.18 47.9444 21.18C46.7031 21.18 45.5923 20.9107 44.6123 20.372C43.6486 19.8334 42.889 19.0499 42.3337 18.0216C41.7783 16.9769 41.5006 15.7119 41.5006 14.2265C41.5006 12.0066 42.0805 10.3009 43.2402 9.10931C44.3999 7.91775 45.9925 7.32196 48.018 7.32196C49.2757 7.32196 50.3864 7.59129 51.3501 8.12994C52.3138 8.6686 53.0734 9.45209 53.6287 10.4804C54.1841 11.5088 54.4618 12.7575 54.4618 14.2265ZM45.2248 14.2265C45.2248 15.5487 45.4372 16.5525 45.8618 17.2381C46.3029 17.9073 47.0134 18.2419 47.9934 18.2419C48.9572 18.2419 49.6514 17.9073 50.0761 17.2381C50.5171 16.5525 50.7376 15.5487 50.7376 14.2265C50.7376 12.9044 50.5171 11.9168 50.0761 11.2639C49.6514 10.5947 48.949 10.2601 47.9689 10.2601C47.0052 10.2601 46.3029 10.5947 45.8618 11.2639C45.4372 11.9168 45.2248 12.9044 45.2248 14.2265Z" fill="white"/>
<path d="M64.9517 7.32196C65.1314 7.32196 65.3438 7.33013 65.5888 7.34645C65.8338 7.36277 66.0298 7.38726 66.1768 7.4199L65.9073 10.8477C65.7766 10.815 65.6051 10.7906 65.3928 10.7742C65.1804 10.7416 64.9926 10.7253 64.8292 10.7253C64.2085 10.7253 63.6123 10.8395 63.0406 11.068C62.469 11.2802 62.0034 11.6312 61.6441 12.1209C61.3011 12.6106 61.1296 13.2798 61.1296 14.1286V20.9352H57.4789V7.56681H60.2475L60.7865 9.81936H60.958C61.3501 9.1338 61.8891 8.54618 62.5751 8.05649C63.2612 7.56681 64.0534 7.32196 64.9517 7.32196Z" fill="white"/>
<path d="M73.6392 7.32196C75.4849 7.32196 76.9468 7.85246 78.0249 8.91344C79.1029 9.9581 79.642 11.4516 79.642 13.394V15.1569H71.0175C71.0502 16.1852 71.3524 16.9932 71.9241 17.5808C72.5121 18.1685 73.3206 18.4623 74.3497 18.4623C75.1991 18.4623 75.9749 18.3807 76.6773 18.2174C77.396 18.0379 78.131 17.7686 78.8824 17.4095V20.2251C78.2127 20.5516 77.5185 20.7883 76.7998 20.9352C76.0811 21.0984 75.2072 21.18 74.1782 21.18C72.8388 21.18 71.6546 20.9352 70.6255 20.4455C69.5965 19.9395 68.7879 19.1886 68.1999 18.193C67.6119 17.1809 67.3178 15.8996 67.3178 14.3489C67.3178 12.7983 67.5792 11.5006 68.1019 10.4559C68.6409 9.41128 69.3841 8.62779 70.3315 8.10546C71.2789 7.58313 72.3814 7.32196 73.6392 7.32196ZM73.6637 9.91729C72.9449 9.91729 72.3569 10.1458 71.8996 10.6028C71.4422 11.0599 71.1727 11.7699 71.091 12.733H76.2118C76.1954 11.9332 75.9749 11.2639 75.5502 10.7253C75.1419 10.1866 74.513 9.91729 73.6637 9.91729Z" fill="white"/>
<path d="M94.8773 7.56681V20.9352H92.0842L91.5941 19.2213H91.3981C90.9734 19.9068 90.3854 20.4047 89.634 20.7148C88.899 21.025 88.115 21.18 87.2819 21.18C85.8445 21.18 84.693 20.7964 83.8273 20.0293C82.9615 19.2458 82.5287 17.9971 82.5287 16.2832V7.56681H86.1794V15.3773C86.1794 16.3403 86.3509 17.0667 86.6939 17.5564C87.0369 18.0297 87.5841 18.2664 88.3355 18.2664C89.4462 18.2664 90.2057 17.891 90.6141 17.1401C91.0224 16.373 91.2266 15.2793 91.2266 13.8592V7.56681H94.8773Z" fill="white"/>
<path d="M114.41 7.32196C115.929 7.32196 117.073 7.71371 117.841 8.49721C118.625 9.26438 119.017 10.5049 119.017 12.2188V20.9352H115.366V13.1247C115.366 11.1986 114.696 10.2356 113.357 10.2356C112.393 10.2356 111.707 10.5784 111.299 11.2639C110.89 11.9495 110.686 12.937 110.686 14.2265V20.9352H107.035V13.1247C107.035 11.1986 106.366 10.2356 105.026 10.2356C104.014 10.2356 103.311 10.6192 102.919 11.3863C102.544 12.1372 102.356 13.2227 102.356 14.6427V20.9352H98.7051V7.56681H101.498L101.988 9.2807H102.184C102.593 8.59514 103.148 8.0973 103.85 7.78717C104.569 7.47703 105.312 7.32196 106.08 7.32196C107.06 7.32196 107.885 7.48519 108.555 7.81165C109.241 8.12178 109.771 8.61147 110.147 9.2807H110.466C110.874 8.59514 111.438 8.0973 112.156 7.78717C112.891 7.47703 113.643 7.32196 114.41 7.32196Z" fill="white"/>
<path d="M8.48633 9C7.89299 9 7.31297 9.17595 6.81962 9.50559C6.32627 9.83523 5.94175 10.3038 5.71469 10.8519C5.48763 11.4001 5.42822 12.0033 5.54397 12.5853C5.65973 13.1672 5.94545 13.7018 6.36501 14.1213C6.78457 14.5409 7.31911 14.8266 7.90106 14.9424C8.483 15.0581 9.0862 14.9987 9.63438 14.7716C10.1826 14.5446 10.6511 14.1601 10.9807 13.6667C11.3104 13.1734 11.4863 12.5933 11.4863 12C11.4863 11.2043 11.1703 10.4413 10.6076 9.87868C10.045 9.31607 9.28198 9 8.48633 9Z" fill="#25D695"/>
<path d="M8.4855 9.06757e-06C6.90933 -0.00193127 5.34832 0.30755 3.89211 0.910677C2.43591 1.5138 1.11321 2.39869 0 3.51451L4.245 7.75951C5.08387 6.91979 6.15296 6.34774 7.31701 6.11574C8.48106 5.88374 9.68777 6.0022 10.7845 6.45615C11.8812 6.9101 12.8186 7.67913 13.4782 8.66596C14.1377 9.65278 14.4898 10.8131 14.4898 12C14.4898 13.1869 14.1377 14.3472 13.4782 15.3341C12.8186 16.3209 11.8812 17.0899 10.7845 17.5439C9.68777 17.9978 8.48106 18.1163 7.31701 17.8843C6.15296 17.6523 5.08387 17.0802 4.245 16.2405L0 20.4855C1.39543 21.8809 3.11343 22.9105 5.00185 23.4833C6.89027 24.0562 8.89081 24.1544 10.8263 23.7694C12.7617 23.3844 14.5724 22.528 16.0978 21.2761C17.6232 20.0242 18.8164 18.4154 19.5716 16.5923C20.3268 14.7691 20.6207 12.7878 20.4273 10.824C20.2339 8.86008 19.5591 6.9742 18.4628 5.33337C17.3665 3.69254 15.8825 2.34741 14.1421 1.41712C12.4018 0.486821 10.4589 8.09751e-05 8.4855 9.06757e-06Z" fill="#25D695"/>
</svg>
